<svg xmlns="http://www.w3.org/2000/svg" viewBox="0 0 560 380" fill="none">
  <rect width="560" height="380" rx="16" fill="#F8FAFC"/>
  <!-- Header -->
  <rect width="560" height="52" rx="16 16 0 0" fill="#1E293B"/>
  <text x="24" y="24" font-family="Arial" font-size="13" font-weight="800" fill="white">✅ Attendance Management</text>
  <text x="24" y="40" font-family="Arial" font-size="10" fill="#64748B">June 2025 · TechCorp India</text>
  <!-- Check-in widget -->
  <rect x="16" y="64" width="180" height="168" rx="12" fill="#1D4ED8"/>
  <text x="106" y="96" font-family="Arial" font-size="20" font-weight="900" fill="white" text-anchor="middle">09:28:44</text>
  <text x="106" y="112" font-family="Arial" font-size="9" fill="rgba(255,255,255,0.6)" text-anchor="middle">Saturday, 13 June 2025</text>
  <rect x="44" y="122" width="124" height="20" rx="10" fill="rgba(255,255,255,0.15)"/>
  <circle cx="58" cy="132" r="4" fill="#4ADE80"/>
  <text x="68" y="136" font-family="Arial" font-size="9" fill="white" font-weight="600">Checked In · 09:02 AM</text>
  <rect x="36" y="154" width="144" height="36" rx="10" fill="rgba(239,68,68,0.2)" stroke="rgba(239,68,68,0.4)" stroke-width="1"/>
  <text x="108" y="177" font-family="Arial" font-size="12" font-weight="700" fill="#FCA5A5" text-anchor="middle">🔴 Check Out</text>
  <!-- Stats -->
  <rect x="36" y="200" width="62" height="20" rx="6" fill="rgba(255,255,255,0.1)"/>
  <text x="67" y="214" font-family="Arial" font-size="8" fill="white" text-anchor="middle">7h 26m</text>
  <rect x="110" y="200" width="70" height="20" rx="6" fill="rgba(255,255,255,0.1)"/>
  <text x="145" y="214" font-family="Arial" font-size="8" fill="white" text-anchor="middle">Work Hrs</text>
  <!-- Calendar mini -->
  <rect x="16" y="244" width="180" height="120" rx="12" fill="white" stroke="#E2E8F0" stroke-width="1"/>
  <text x="32" y="264" font-family="Arial" font-size="10" font-weight="700" fill="#1E293B">June 2025</text>
  <text x="32" y="282" font-family="Arial" font-size="7" fill="#94A3B8">M  T  W  T  F  S  S</text>
  <!-- Calendar rows -->
  <text x="32" y="298" font-family="Arial" font-size="8" fill="#1E293B">P  P  P  P  P  W  W</text>
  <text x="32" y="312" font-family="Arial" font-size="8" fill="#1E293B">P  P  P  P  P  W  W</text>
  <text x="32" y="326" font-family="Arial" font-size="8" fill="#1E293B">H  P  P  P  P  W  W</text>
  <rect x="96" y="316" width="14" height="14" rx="4" fill="#2563EB"/>
  <text x="99" y="327" font-family="Arial" font-size="7" fill="white" font-weight="700">13</text>
  <!-- Color dots legend -->
  <circle cx="32" cy="350" r="4" fill="#10B981"/>
  <text x="40" y="354" font-family="Arial" font-size="8" fill="#64748B">Present</text>
  <circle cx="90" cy="350" r="4" fill="#EF4444"/>
  <text x="98" y="354" font-family="Arial" font-size="8" fill="#64748B">Absent</text>
  <circle cx="148" cy="350" r="4" fill="#F59E0B"/>
  <text x="156" y="354" font-family="Arial" font-size="8" fill="#64748B">Late</text>
  <!-- Attendance table -->
  <rect x="208" y="64" width="336" height="300" rx="12" fill="white" stroke="#E2E8F0" stroke-width="1"/>
  <rect x="208" y="64" width="336" height="36" rx="12 12 0 0" fill="#F1F5F9"/>
  <text x="224" y="86" font-family="Arial" font-size="9" fill="#64748B" font-weight="700">EMPLOYEE</text>
  <text x="330" y="86" font-family="Arial" font-size="9" fill="#64748B" font-weight="700">CHECK IN</text>
  <text x="390" y="86" font-family="Arial" font-size="9" fill="#64748B" font-weight="700">HOURS</text>
  <text x="450" y="86" font-family="Arial" font-size="9" fill="#64748B" font-weight="700">STATUS</text>
  <!-- Stacked bar chart above table -->
  <rect x="220" y="104" width="308" height="70" rx="8" fill="#F8FAFC"/>
  <text x="232" y="118" font-family="Arial" font-size="9" font-weight="700" fill="#475569">Today's Summary</text>
  <!-- Bar chart -->
  <rect x="232" y="126" width="180" height="16" rx="3" fill="#E2E8F0"/>
  <rect x="232" y="126" width="156" height="16" rx="3" fill="#10B981"/>
  <text x="394" y="138" font-family="Arial" font-size="9" fill="#475569">Present: 214</text>
  <rect x="232" y="148" width="180" height="16" rx="3" fill="#E2E8F0"/>
  <rect x="232" y="148" width="20" height="16" rx="3" fill="#EF4444"/>
  <text x="394" y="160" font-family="Arial" font-size="9" fill="#475569">Absent: 18</text>
  <!-- Table rows -->
  <circle cx="234" cy="206" r="11" fill="#7C3AED"/>
  <text x="228" y="210" font-family="Arial" font-size="8" font-weight="700" fill="white">PS</text>
  <text x="252" y="203" font-family="Arial" font-size="10" font-weight="600" fill="#1E293B">Priya Sharma</text>
  <text x="252" y="215" font-family="Arial" font-size="8" fill="#94A3B8">Engineering</text>
  <text x="330" y="210" font-family="Arial" font-size="10" fill="#475569">09:28 AM</text>
  <text x="390" y="210" font-family="Arial" font-size="10" fill="#475569">9h 32m</text>
  <rect x="448" y="198" width="40" height="16" rx="8" fill="#FEF9C3"/>
  <text x="456" y="210" font-family="Arial" font-size="8" fill="#D97706" font-weight="700">Late</text>
  <line x1="208" y1="224" x2="544" y2="224" stroke="#F1F5F9"/>
  <circle cx="234" cy="244" r="11" fill="#059669"/>
  <text x="228" y="248" font-family="Arial" font-size="8" font-weight="700" fill="white">RM</text>
  <text x="252" y="241" font-family="Arial" font-size="10" font-weight="600" fill="#1E293B">Rahul Mehta</text>
  <text x="252" y="253" font-family="Arial" font-size="8" fill="#94A3B8">Sales</text>
  <text x="330" y="248" font-family="Arial" font-size="10" fill="#475569">08:55 AM</text>
  <text x="390" y="248" font-family="Arial" font-size="10" fill="#475569">9h 05m</text>
  <rect x="448" y="236" width="48" height="16" rx="8" fill="#ECFDF5"/>
  <text x="454" y="248" font-family="Arial" font-size="8" fill="#059669" font-weight="700">Present</text>
  <line x1="208" y1="262" x2="544" y2="262" stroke="#F1F5F9"/>
  <circle cx="234" cy="282" r="11" fill="#F97316"/>
  <text x="228" y="286" font-family="Arial" font-size="8" font-weight="700" fill="white">SP</text>
  <text x="252" y="279" font-family="Arial" font-size="10" font-weight="600" fill="#1E293B">Sneha Patel</text>
  <text x="252" y="291" font-family="Arial" font-size="8" fill="#94A3B8">Marketing</text>
  <text x="330" y="286" font-family="Arial" font-size="10" fill="#D1D5DB">—</text>
  <text x="390" y="286" font-family="Arial" font-size="10" fill="#D1D5DB">—</text>
  <rect x="448" y="274" width="42" height="16" rx="8" fill="#FEF2F2"/>
  <text x="454" y="286" font-family="Arial" font-size="8" fill="#DC2626" font-weight="700">Absent</text>
  <line x1="208" y1="300" x2="544" y2="300" stroke="#F1F5F9"/>
  <circle cx="234" cy="320" r="11" fill="#0891B2"/>
  <text x="228" y="324" font-family="Arial" font-size="8" font-weight="700" fill="white">KR</text>
  <text x="252" y="317" font-family="Arial" font-size="10" font-weight="600" fill="#1E293B">Kiran Reddy</text>
  <text x="252" y="329" font-family="Arial" font-size="8" fill="#94A3B8">Engineering</text>
  <text x="330" y="324" font-family="Arial" font-size="10" fill="#D1D5DB">—</text>
  <text x="390" y="324" font-family="Arial" font-size="10" fill="#D1D5DB">—</text>
  <rect x="448" y="312" width="52" height="16" rx="8" fill="#FFF7ED"/>
  <text x="452" y="324" font-family="Arial" font-size="8" fill="#EA580C" font-weight="700">On Leave</text>
  <!-- Footer bar -->
  <rect x="208" y="344" width="336" height="20" rx="0 0 10 10" fill="#F8FAFC"/>
  <text x="224" y="358" font-family="Arial" font-size="9" fill="#94A3B8">Showing 8 of 248 · Page 1 of 31</text>
  <rect x="476" y="336" width="52" height="20" rx="6" fill="#EFF6FF"/>
  <text x="484" y="350" font-family="Arial" font-size="9" fill="#2563EB" font-weight="600">Next →</text>
</svg>
