<svg xmlns="http://www.w3.org/2000/svg" viewBox="0 0 900 560" fill="none">
  <!-- Background -->
  <rect width="900" height="560" rx="16" fill="#0F172A"/>
  <!-- Grid dots -->
  <pattern id="grid" width="30" height="30" patternUnits="userSpaceOnUse">
    <circle cx="15" cy="15" r="1" fill="#ffffff08"/>
  </pattern>
  <rect width="900" height="560" fill="url(#grid)"/>
  <!-- Glow orbs -->
  <circle cx="100" cy="150" r="180" fill="#2563EB" opacity="0.08"/>
  <circle cx="800" cy="400" r="150" fill="#7C3AED" opacity="0.08"/>
  <!-- Sidebar -->
  <rect x="0" y="0" width="180" height="560" fill="#0F172A" rx="16 0 0 16"/>
  <rect x="0" y="0" width="180" height="560" fill="url(#sideGrad)"/>
  <defs>
    <linearGradient id="sideGrad" x1="0" y1="0" x2="180" y2="0">
      <stop offset="0%" stop-color="#1E293B" stop-opacity="0.6"/>
      <stop offset="100%" stop-color="#0F172A" stop-opacity="0"/>
    </linearGradient>
    <linearGradient id="cardBlue" x1="0" y1="0" x2="160" y2="80">
      <stop offset="0%" stop-color="#2563EB"/>
      <stop offset="100%" stop-color="#1D4ED8"/>
    </linearGradient>
    <linearGradient id="cardGreen" x1="0" y1="0" x2="160" y2="80">
      <stop offset="0%" stop-color="#059669"/>
      <stop offset="100%" stop-color="#047857"/>
    </linearGradient>
    <linearGradient id="cardOrange" x1="0" y1="0" x2="160" y2="80">
      <stop offset="0%" stop-color="#F97316"/>
      <stop offset="100%" stop-color="#EA580C"/>
    </linearGradient>
    <linearGradient id="cardPurple" x1="0" y1="0" x2="160" y2="80">
      <stop offset="0%" stop-color="#7C3AED"/>
      <stop offset="100%" stop-color="#6D28D9"/>
    </linearGradient>
    <linearGradient id="barGrad" x1="0" y1="0" x2="0" y2="120">
      <stop offset="0%" stop-color="#2563EB"/>
      <stop offset="100%" stop-color="#7C3AED"/>
    </linearGradient>
  </defs>
  <!-- Sidebar logo -->
  <rect x="14" y="16" width="32" height="32" rx="8" fill="#2563EB"/>
  <text x="20" y="37" font-family="Arial" font-size="14" font-weight="900" fill="white">WP</text>
  <text x="54" y="30" font-family="Arial" font-size="11" font-weight="700" fill="white">WorkPilot</text>
  <text x="54" y="43" font-family="Arial" font-size="9" fill="#64748B">HR Enterprise</text>
  <!-- Sidebar nav items -->
  <rect x="10" y="72" width="158" height="30" rx="8" fill="#2563EB" opacity="0.2"/>
  <rect x="16" y="78" width="14" height="14" rx="3" fill="#2563EB"/>
  <text x="36" y="90" font-family="Arial" font-size="11" fill="#93C5FD" font-weight="600">Dashboard</text>
  <rect x="16" y="113" width="14" height="14" rx="3" fill="#334155"/>
  <text x="36" y="125" font-family="Arial" font-size="11" fill="#64748B">Employees</text>
  <rect x="16" y="143" width="14" height="14" rx="3" fill="#334155"/>
  <text x="36" y="155" font-family="Arial" font-size="11" fill="#64748B">Attendance</text>
  <rect x="16" y="173" width="14" height="14" rx="3" fill="#334155"/>
  <text x="36" y="185" font-family="Arial" font-size="11" fill="#64748B">Payroll</text>
  <rect x="16" y="203" width="14" height="14" rx="3" fill="#334155"/>
  <text x="36" y="215" font-family="Arial" font-size="11" fill="#64748B">Leave</text>
  <rect x="16" y="233" width="14" height="14" rx="3" fill="#334155"/>
  <text x="36" y="245" font-family="Arial" font-size="11" fill="#64748B">Tasks</text>
  <rect x="16" y="263" width="14" height="14" rx="3" fill="#334155"/>
  <text x="36" y="275" font-family="Arial" font-size="11" fill="#64748B">GPS Track</text>
  <rect x="16" y="293" width="14" height="14" rx="3" fill="#334155"/>
  <text x="36" y="305" font-family="Arial" font-size="11" fill="#64748B">Reports</text>
  <!-- Sidebar user -->
  <circle cx="30" cy="530" r="16" fill="#2563EB"/>
  <text x="22" y="535" font-family="Arial" font-size="10" font-weight="700" fill="white">AK</text>
  <text x="52" y="526" font-family="Arial" font-size="10" font-weight="700" fill="white">Arjun Kumar</text>
  <text x="52" y="538" font-family="Arial" font-size="9" fill="#64748B">HR Admin</text>

  <!-- Topbar -->
  <rect x="180" y="0" width="720" height="48" fill="#1E293B" opacity="0.8"/>
  <text x="200" y="30" font-family="Arial" font-size="13" font-weight="700" fill="white">Dashboard</text>
  <!-- Search bar -->
  <rect x="360" y="12" width="220" height="26" rx="6" fill="#0F172A"/>
  <text x="376" y="29" font-family="Arial" font-size="10" fill="#475569">Search employees, payroll...</text>
  <!-- Notif + avatar -->
  <circle cx="624" cy="24" r="14" fill="#1E293B"/>
  <circle cx="660" cy="24" r="16" fill="#2563EB"/>
  <text x="652" y="29" font-family="Arial" font-size="10" font-weight="700" fill="white">AK</text>

  <!-- KPI Cards Row -->
  <!-- Card 1: Employees -->
  <rect x="196" y="62" width="158" height="82" rx="12" fill="url(#cardBlue)"/>
  <text x="212" y="84" font-family="Arial" font-size="9" fill="rgba(255,255,255,0.7)" font-weight="600" letter-spacing="1">EMPLOYEES</text>
  <text x="212" y="112" font-family="Arial" font-size="26" font-weight="900" fill="white">248</text>
  <text x="212" y="132" font-family="Arial" font-size="9" fill="rgba(255,255,255,0.6)">▲ +6 this month</text>
  <text x="318" y="100" font-family="Arial" font-size="28" fill="rgba(255,255,255,0.12)">👥</text>

  <!-- Card 2: Present -->
  <rect x="366" y="62" width="158" height="82" rx="12" fill="url(#cardGreen)"/>
  <text x="382" y="84" font-family="Arial" font-size="9" fill="rgba(255,255,255,0.7)" font-weight="600" letter-spacing="1">PRESENT TODAY</text>
  <text x="382" y="112" font-family="Arial" font-size="26" font-weight="900" fill="white">214</text>
  <text x="382" y="132" font-family="Arial" font-size="9" fill="rgba(255,255,255,0.6)">86.3% attendance rate</text>
  <text x="488" y="100" font-family="Arial" font-size="28" fill="rgba(255,255,255,0.12)">✅</text>

  <!-- Card 3: Payroll -->
  <rect x="536" y="62" width="158" height="82" rx="12" fill="url(#cardOrange)"/>
  <text x="552" y="84" font-family="Arial" font-size="9" fill="rgba(255,255,255,0.7)" font-weight="600" letter-spacing="1">PAYROLL</text>
  <text x="552" y="112" font-family="Arial" font-size="26" font-weight="900" fill="white">₹28.4L</text>
  <text x="552" y="132" font-family="Arial" font-size="9" fill="rgba(255,255,255,0.6)">▲ +1.9% vs last month</text>
  <text x="658" y="100" font-family="Arial" font-size="28" fill="rgba(255,255,255,0.12)">💰</text>

  <!-- Card 4: Leave -->
  <rect x="706" y="62" width="158" height="82" rx="12" fill="url(#cardPurple)"/>
  <text x="722" y="84" font-family="Arial" font-size="9" fill="rgba(255,255,255,0.7)" font-weight="600" letter-spacing="1">PENDING LEAVES</text>
  <text x="722" y="112" font-family="Arial" font-size="26" font-weight="900" fill="white">5</text>
  <text x="722" y="132" font-family="Arial" font-size="9" fill="rgba(255,255,255,0.6)">Needs approval today</text>
  <text x="828" y="100" font-family="Arial" font-size="28" fill="rgba(255,255,255,0.12)">📅</text>

  <!-- Trend Chart -->
  <rect x="196" y="158" width="336" height="200" rx="12" fill="#1E293B"/>
  <text x="216" y="182" font-family="Arial" font-size="11" font-weight="700" fill="white">Attendance &amp; Payroll Trend</text>
  <!-- Chart bars -->
  <rect x="226" y="280" width="24" height="46" rx="4" fill="#2563EB" opacity="0.4"/>
  <rect x="268" y="260" width="24" height="66" rx="4" fill="#2563EB" opacity="0.5"/>
  <rect x="310" y="272" width="24" height="54" rx="4" fill="#2563EB" opacity="0.6"/>
  <rect x="352" y="254" width="24" height="72" rx="4" fill="#2563EB" opacity="0.7"/>
  <rect x="394" y="263" width="24" height="63" rx="4" fill="#2563EB" opacity="0.85"/>
  <rect x="436" y="248" width="24" height="78" rx="4" fill="url(#barGrad)"/>
  <!-- Line overlay -->
  <polyline points="238,272 280,250 322,265 364,242 406,253 448,236" stroke="#F97316" stroke-width="2" fill="none" stroke-linecap="round" stroke-linejoin="round"/>
  <circle cx="238" cy="272" r="3" fill="#F97316"/>
  <circle cx="280" cy="250" r="3" fill="#F97316"/>
  <circle cx="322" cy="265" r="3" fill="#F97316"/>
  <circle cx="364" cy="242" r="3" fill="#F97316"/>
  <circle cx="406" cy="253" r="3" fill="#F97316"/>
  <circle cx="448" cy="236" r="4" fill="#F97316" stroke="white" stroke-width="1.5"/>
  <!-- Chart labels -->
  <text x="226" y="342" font-family="Arial" font-size="9" fill="#475569">Jan</text>
  <text x="268" y="342" font-family="Arial" font-size="9" fill="#475569">Feb</text>
  <text x="310" y="342" font-family="Arial" font-size="9" fill="#475569">Mar</text>
  <text x="352" y="342" font-family="Arial" font-size="9" fill="#475569">Apr</text>
  <text x="394" y="342" font-family="Arial" font-size="9" fill="#475569">May</text>
  <text x="436" y="342" font-family="Arial" font-size="9" fill="#2563EB" font-weight="700">Jun</text>

  <!-- Attendance Donut -->
  <rect x="548" y="158" width="160" height="200" rx="12" fill="#1E293B"/>
  <text x="568" y="182" font-family="Arial" font-size="11" font-weight="700" fill="white">Today</text>
  <circle cx="628" cy="265" r="52" fill="none" stroke="#1E3A5F" stroke-width="12"/>
  <circle cx="628" cy="265" r="52" fill="none" stroke="#10B981" stroke-width="12" stroke-dasharray="281 47" stroke-linecap="round" transform="rotate(-90 628 265)"/>
  <circle cx="628" cy="265" r="52" fill="none" stroke="#EF4444" stroke-width="12" stroke-dasharray="25 303" stroke-linecap="round" transform="rotate(215 628 265)"/>
  <text x="621" y="258" font-family="Arial" font-size="16" font-weight="900" fill="white">86%</text>
  <text x="616" y="273" font-family="Arial" font-size="9" fill="#64748B">Present</text>
  <!-- Legend -->
  <circle cx="565" cy="335" r="4" fill="#10B981"/>
  <text x="575" y="339" font-family="Arial" font-size="9" fill="#94A3B8">Present 214</text>
  <circle cx="565" cy="350" r="4" fill="#EF4444"/>
  <text x="575" y="354" font-family="Arial" font-size="9" fill="#94A3B8">Absent 18</text>

  <!-- Activity Feed -->
  <rect x="724" y="158" width="140" height="200" rx="12" fill="#1E293B"/>
  <text x="740" y="182" font-family="Arial" font-size="11" font-weight="700" fill="white">Live Activity</text>
  <circle cx="744" cy="182" r="4" fill="#10B981"/>
  <!-- Activity items -->
  <circle cx="744" cy="210" r="12" fill="#7C3AED"/>
  <text x="738" y="214" font-family="Arial" font-size="8" font-weight="700" fill="white">PS</text>
  <text x="762" y="207" font-family="Arial" font-size="9" fill="white">Priya checked in</text>
  <text x="762" y="218" font-family="Arial" font-size="8" fill="#475569">09:28 AM</text>

  <circle cx="744" cy="242" r="12" fill="#059669"/>
  <text x="739" y="246" font-family="Arial" font-size="8" font-weight="700" fill="white">RM</text>
  <text x="762" y="239" font-family="Arial" font-size="9" fill="white">Leave applied</text>
  <text x="762" y="250" font-family="Arial" font-size="8" fill="#475569">09:15 AM</text>

  <circle cx="744" cy="274" r="12" fill="#F97316"/>
  <text x="739" y="278" font-family="Arial" font-size="8" font-weight="700" fill="white">SP</text>
  <text x="762" y="271" font-family="Arial" font-size="9" fill="white">Task updated</text>
  <text x="762" y="282" font-family="Arial" font-size="8" fill="#475569">08:45 AM</text>

  <circle cx="744" cy="306" r="12" fill="#2563EB"/>
  <text x="739" y="310" font-family="Arial" font-size="8" font-weight="700" fill="white">AD</text>
  <text x="762" y="303" font-family="Arial" font-size="9" fill="white">Payroll initiated</text>
  <text x="762" y="314" font-family="Arial" font-size="8" fill="#475569">08:30 AM</text>

  <!-- Bottom Row: Employees + Tasks + Pending -->
  <!-- Employee table -->
  <rect x="196" y="372" width="336" height="168" rx="12" fill="#1E293B"/>
  <text x="216" y="396" font-family="Arial" font-size="11" font-weight="700" fill="white">Employee Attendance</text>
  <!-- Table header -->
  <rect x="196" y="404" width="336" height="22" fill="#1E293B"/>
  <text x="216" y="419" font-family="Arial" font-size="9" fill="#475569" font-weight="700" letter-spacing="0.5">EMPLOYEE</text>
  <text x="356" y="419" font-family="Arial" font-size="9" fill="#475569" font-weight="700">CHECK IN</text>
  <text x="446" y="419" font-family="Arial" font-size="9" fill="#475569" font-weight="700">STATUS</text>
  <!-- Rows -->
  <circle cx="226" cy="444" r="11" fill="#7C3AED"/>
  <text x="220" y="448" font-family="Arial" font-size="8" font-weight="700" fill="white">PS</text>
  <text x="244" y="441" font-family="Arial" font-size="10" font-weight="600" fill="white">Priya Sharma</text>
  <text x="244" y="453" font-family="Arial" font-size="9" fill="#475569">Engineering</text>
  <text x="356" y="448" font-family="Arial" font-size="10" fill="#94A3B8">09:28 AM</text>
  <rect x="444" y="435" width="44" height="16" rx="8" fill="#ECFDF5"/>
  <text x="452" y="447" font-family="Arial" font-size="8" fill="#059669" font-weight="700">Present</text>

  <circle cx="226" cy="474" r="11" fill="#059669"/>
  <text x="220" y="478" font-family="Arial" font-size="8" font-weight="700" fill="white">RM</text>
  <text x="244" y="471" font-family="Arial" font-size="10" font-weight="600" fill="white">Rahul Mehta</text>
  <text x="244" y="483" font-family="Arial" font-size="9" fill="#475569">Sales</text>
  <text x="356" y="478" font-family="Arial" font-size="10" fill="#94A3B8">09:42 AM</text>
  <rect x="444" y="465" width="34" height="16" rx="8" fill="#FFFBEB"/>
  <text x="452" y="477" font-family="Arial" font-size="8" fill="#D97706" font-weight="700">Late</text>

  <circle cx="226" cy="504" r="11" fill="#F97316"/>
  <text x="220" y="508" font-family="Arial" font-size="8" font-weight="700" fill="white">SP</text>
  <text x="244" y="501" font-family="Arial" font-size="10" font-weight="600" fill="white">Sneha Patel</text>
  <text x="244" y="513" font-family="Arial" font-size="9" fill="#475569">Marketing</text>
  <text x="356" y="508" font-family="Arial" font-size="10" fill="#94A3B8">—</text>
  <rect x="444" y="495" width="36" height="16" rx="8" fill="#FEF2F2"/>
  <text x="449" y="507" font-family="Arial" font-size="8" fill="#DC2626" font-weight="700">Absent</text>

  <!-- Task kanban mini -->
  <rect x="548" y="372" width="160" height="168" rx="12" fill="#1E293B"/>
  <text x="568" y="396" font-family="Arial" font-size="11" font-weight="700" fill="white">Tasks Board</text>
  <!-- Columns -->
  <rect x="558" y="406" width="62" height="118" rx="6" fill="#0F172A"/>
  <text x="568" y="420" font-family="Arial" font-size="8" fill="#64748B" font-weight="700">IN PROGRESS</text>
  <rect x="563" y="428" width="52" height="32" rx="4" fill="#1E3A5F"/>
  <rect x="563" y="428" width="52" height="3" rx="2" fill="#2563EB"/>
  <text x="568" y="441" font-family="Arial" font-size="8" fill="white">June Payroll</text>
  <text x="568" y="452" font-family="Arial" font-size="7" fill="#475569">65% done</text>
  <rect x="563" y="466" width="52" height="32" rx="4" fill="#1E3A5F"/>
  <rect x="563" y="466" width="52" height="3" rx="2" fill="#F97316"/>
  <text x="568" y="479" font-family="Arial" font-size="8" fill="white">Q3 Appraisal</text>
  <text x="568" y="490" font-family="Arial" font-size="7" fill="#475569">High priority</text>
  <rect x="632" y="406" width="62" height="118" rx="6" fill="#0F172A"/>
  <text x="638" y="420" font-family="Arial" font-size="8" fill="#64748B" font-weight="700">DONE</text>
  <rect x="637" y="428" width="52" height="32" rx="4" fill="#064E3B"/>
  <rect x="637" y="428" width="52" height="3" rx="2" fill="#10B981"/>
  <text x="642" y="441" font-family="Arial" font-size="8" fill="white">Org Chart</text>
  <text x="642" y="452" font-family="Arial" font-size="7" fill="#10B981">Completed ✓</text>

  <!-- Dept breakdown -->
  <rect x="724" y="372" width="140" height="168" rx="12" fill="#1E293B"/>
  <text x="740" y="396" font-family="Arial" font-size="11" font-weight="700" fill="white">Departments</text>
  <!-- Bars -->
  <text x="740" y="420" font-family="Arial" font-size="9" fill="#94A3B8">Engineering</text>
  <rect x="740" y="426" width="100" height="7" rx="3" fill="#1E3A5F"/>
  <rect x="740" y="426" width="72" height="7" rx="3" fill="#2563EB"/>
  <text x="846" y="434" font-family="Arial" font-size="8" fill="#64748B">68</text>
  <text x="740" y="452" font-family="Arial" font-size="9" fill="#94A3B8">Sales</text>
  <rect x="740" y="458" width="100" height="7" rx="3" fill="#1E3A5F"/>
  <rect x="740" y="458" width="52" height="7" rx="3" fill="#F97316"/>
  <text x="846" y="466" font-family="Arial" font-size="8" fill="#64748B">45</text>
  <text x="740" y="484" font-family="Arial" font-size="9" fill="#94A3B8">Operations</text>
  <rect x="740" y="490" width="100" height="7" rx="3" fill="#1E3A5F"/>
  <rect x="740" y="490" width="44" height="7" rx="3" fill="#059669"/>
  <text x="846" y="498" font-family="Arial" font-size="8" fill="#64748B">38</text>
  <text x="740" y="516" font-family="Arial" font-size="9" fill="#94A3B8">Marketing</text>
  <rect x="740" y="522" width="100" height="7" rx="3" fill="#1E3A5F"/>
  <rect x="740" y="522" width="36" height="7" rx="3" fill="#7C3AED"/>
  <text x="846" y="530" font-family="Arial" font-size="8" fill="#64748B">30</text>
</svg>
