<svg xmlns="http://www.w3.org/2000/svg" viewBox="0 0 600 400" fill="none">
  <rect width="600" height="400" rx="16" fill="#F8FAFC"/>
  <rect x="0" y="0" width="600" height="56" rx="16 16 0 0" fill="#059669"/>
  <rect x="0" y="40" width="600" height="16" fill="#059669"/>
  <text x="24" y="28" font-family="Arial" font-size="14" font-weight="800" fill="white">💰 Payroll Processing — June 2025</text>
  <text x="24" y="46" font-family="Arial" font-size="10" fill="rgba(255,255,255,0.7)">TechCorp India · 248 employees</text>
  <rect x="450" y="14" width="130" height="28" rx="8" fill="white" opacity="0.15"/>
  <text x="466" y="33" font-family="Arial" font-size="11" font-weight="700" fill="white">▶ Run Payroll</text>
  <!-- KPI Row -->
  <rect x="16" y="68" width="130" height="64" rx="10" fill="white" stroke="#E2E8F0" stroke-width="1"/>
  <text x="30" y="90" font-family="Arial" font-size="9" fill="#64748B" font-weight="600">TOTAL PAYROLL</text>
  <text x="30" y="114" font-family="Arial" font-size="20" font-weight="900" fill="#059669">₹28.4L</text>
  <rect x="158" y="68" width="130" height="64" rx="10" fill="white" stroke="#E2E8F0" stroke-width="1"/>
  <text x="172" y="90" font-family="Arial" font-size="9" fill="#64748B" font-weight="600">PROCESSED</text>
  <text x="172" y="114" font-family="Arial" font-size="20" font-weight="900" fill="#2563EB">245</text>
  <rect x="300" y="68" width="130" height="64" rx="10" fill="white" stroke="#E2E8F0" stroke-width="1"/>
  <text x="314" y="90" font-family="Arial" font-size="9" fill="#64748B" font-weight="600">PENDING</text>
  <text x="314" y="114" font-family="Arial" font-size="20" font-weight="900" fill="#F59E0B">3</text>
  <rect x="442" y="68" width="142" height="64" rx="10" fill="white" stroke="#E2E8F0" stroke-width="1"/>
  <text x="456" y="90" font-family="Arial" font-size="9" fill="#64748B" font-weight="600">DEDUCTIONS</text>
  <text x="456" y="114" font-family="Arial" font-size="20" font-weight="900" fill="#EF4444">₹4.2L</text>
  <!-- Table -->
  <rect x="16" y="146" width="568" height="238" rx="12" fill="white" stroke="#E2E8F0" stroke-width="1"/>
  <!-- Table header -->
  <rect x="16" y="146" width="568" height="36" rx="12 12 0 0" fill="#F1F5F9"/>
  <text x="36" y="169" font-family="Arial" font-size="9" fill="#64748B" font-weight="700">EMPLOYEE</text>
  <text x="190" y="169" font-family="Arial" font-size="9" fill="#64748B" font-weight="700">DEPARTMENT</text>
  <text x="290" y="169" font-family="Arial" font-size="9" fill="#64748B" font-weight="700">GROSS</text>
  <text x="356" y="169" font-family="Arial" font-size="9" fill="#64748B" font-weight="700">DEDUCTIONS</text>
  <text x="440" y="169" font-family="Arial" font-size="9" fill="#64748B" font-weight="700">NET SALARY</text>
  <text x="524" y="169" font-family="Arial" font-size="9" fill="#64748B" font-weight="700">STATUS</text>
  <!-- Row data -->
  <g transform="translate(0,0)">
    <!-- Row 1 -->
    <rect x="17" y="182" width="566" height="36" fill="white"/>
    <circle cx="44" cy="200" r="12" fill="#7C3AED"/>
    <text x="38" y="204" font-family="Arial" font-size="8" font-weight="700" fill="white">PS</text>
    <text x="62" y="197" font-family="Arial" font-size="10" font-weight="700" fill="#1E293B">Priya Sharma</text>
    <text x="62" y="210" font-family="Arial" font-size="9" fill="#94A3B8">EMP002</text>
    <text x="190" y="202" font-family="Arial" font-size="10" fill="#475569">Engineering</text>
    <text x="290" y="202" font-family="Arial" font-size="10" fill="#475569">₹1,20,000</text>
    <text x="356" y="202" font-family="Arial" font-size="10" fill="#EF4444">-₹14,400</text>
    <text x="440" y="202" font-family="Arial" font-size="10" font-weight="700" fill="#059669">₹1,05,600</text>
    <rect x="522" y="192" width="52" height="16" rx="8" fill="#ECFDF5"/>
    <text x="530" y="204" font-family="Arial" font-size="8" fill="#059669" font-weight="700">Processed</text>
    <line x1="17" y1="218" x2="583" y2="218" stroke="#F1F5F9" stroke-width="1"/>
    <!-- Row 2 -->
    <circle cx="44" cy="236" r="12" fill="#059669"/>
    <text x="38" y="240" font-family="Arial" font-size="8" font-weight="700" fill="white">RM</text>
    <text x="62" y="233" font-family="Arial" font-size="10" font-weight="700" fill="#1E293B">Rahul Mehta</text>
    <text x="62" y="246" font-family="Arial" font-size="9" fill="#94A3B8">EMP003</text>
    <text x="190" y="238" font-family="Arial" font-size="10" fill="#475569">Sales</text>
    <text x="290" y="238" font-family="Arial" font-size="10" fill="#475569">₹55,000</text>
    <text x="356" y="238" font-family="Arial" font-size="10" fill="#EF4444">-₹6,200</text>
    <text x="440" y="238" font-family="Arial" font-size="10" font-weight="700" fill="#059669">₹48,800</text>
    <rect x="522" y="228" width="44" height="16" rx="8" fill="#FFFBEB"/>
    <text x="530" y="240" font-family="Arial" font-size="8" fill="#D97706" font-weight="700">Pending</text>
    <line x1="17" y1="254" x2="583" y2="254" stroke="#F1F5F9" stroke-width="1"/>
    <!-- Row 3 -->
    <circle cx="44" cy="272" r="12" fill="#F97316"/>
    <text x="38" y="276" font-family="Arial" font-size="8" font-weight="700" fill="white">SP</text>
    <text x="62" y="269" font-family="Arial" font-size="10" font-weight="700" fill="#1E293B">Sneha Patel</text>
    <text x="62" y="282" font-family="Arial" font-size="9" fill="#94A3B8">EMP004</text>
    <text x="190" y="274" font-family="Arial" font-size="10" fill="#475569">Marketing</text>
    <text x="290" y="274" font-family="Arial" font-size="10" fill="#475569">₹75,000</text>
    <text x="356" y="274" font-family="Arial" font-size="10" fill="#EF4444">-₹8,900</text>
    <text x="440" y="274" font-family="Arial" font-size="10" font-weight="700" fill="#059669">₹66,100</text>
    <rect x="522" y="264" width="52" height="16" rx="8" fill="#ECFDF5"/>
    <text x="530" y="276" font-family="Arial" font-size="8" fill="#059669" font-weight="700">Processed</text>
    <line x1="17" y1="290" x2="583" y2="290" stroke="#F1F5F9" stroke-width="1"/>
    <!-- Row 4 -->
    <circle cx="44" cy="308" r="12" fill="#DC2626"/>
    <text x="38" y="312" font-family="Arial" font-size="8" font-weight="700" fill="white">AD</text>
    <text x="62" y="305" font-family="Arial" font-size="10" font-weight="700" fill="#1E293B">Anita Desai</text>
    <text x="62" y="318" font-family="Arial" font-size="9" fill="#94A3B8">EMP006</text>
    <text x="190" y="310" font-family="Arial" font-size="10" fill="#475569">Finance</text>
    <text x="290" y="310" font-family="Arial" font-size="10" fill="#475569">₹95,000</text>
    <text x="356" y="310" font-family="Arial" font-size="10" fill="#EF4444">-₹11,800</text>
    <text x="440" y="310" font-family="Arial" font-size="10" font-weight="700" fill="#059669">₹83,200</text>
    <rect x="522" y="300" width="52" height="16" rx="8" fill="#ECFDF5"/>
    <text x="530" y="312" font-family="Arial" font-size="8" fill="#059669" font-weight="700">Processed</text>
    <line x1="17" y1="326" x2="583" y2="326" stroke="#F1F5F9" stroke-width="1"/>
    <!-- Row 5 -->
    <circle cx="44" cy="344" r="12" fill="#0F172A"/>
    <text x="38" y="348" font-family="Arial" font-size="8" font-weight="700" fill="white">VS</text>
    <text x="62" y="341" font-family="Arial" font-size="10" font-weight="700" fill="#1E293B">Vikram Singh</text>
    <text x="62" y="354" font-family="Arial" font-size="9" fill="#94A3B8">EMP005</text>
    <text x="190" y="346" font-family="Arial" font-size="10" fill="#475569">Management</text>
    <text x="290" y="346" font-family="Arial" font-size="10" fill="#475569">₹2,50,000</text>
    <text x="356" y="346" font-family="Arial" font-size="10" fill="#EF4444">-₹42,500</text>
    <text x="440" y="346" font-family="Arial" font-size="10" font-weight="700" fill="#059669">₹2,07,500</text>
    <rect x="522" y="336" width="46" height="16" rx="8" fill="#FFF7ED"/>
    <text x="528" y="348" font-family="Arial" font-size="8" fill="#EA580C" font-weight="700">On Hold</text>
  </g>
  <!-- Footer total -->
  <rect x="16" y="370" width="568" height="12" rx="0 0 10 10" fill="#F1F5F9"/>
  <text x="400" y="380" font-family="Arial" font-size="9" fill="#475569" font-weight="700">Total Net Payroll:</text>
  <text x="500" y="380" font-family="Arial" font-size="9" fill="#059669" font-weight="800">₹28,45,000</text>
</svg>
