<svg xmlns="http://www.w3.org/2000/svg" viewBox="0 0 520 320" fill="none">
  <rect width="520" height="320" fill="#F8FAFC" rx="16"/>
  <!-- Background circles -->
  <circle cx="260" cy="160" r="140" fill="#EFF6FF" opacity="0.7"/>
  <circle cx="260" cy="160" r="100" fill="#DBEAFE" opacity="0.5"/>
  <!-- Central HR manager figure -->
  <circle cx="260" cy="120" r="36" fill="linear-gradient(135deg,#2563EB,#1D4ED8)"/>
  <circle cx="260" cy="120" r="36" fill="#2563EB"/>
  <text x="248" y="128" font-family="Arial" font-size="14" font-weight="900" fill="white">HR</text>
  <rect x="236" y="158" width="48" height="48" rx="10" fill="#1D4ED8"/>
  <rect x="240" y="162" width="40" height="40" rx="8" fill="#2563EB"/>
  <text x="254" y="186" font-family="Arial" font-size="9" fill="white" font-weight="700">ADMIN</text>
  <!-- Connecting lines -->
  <line x1="226" y1="140" x2="148" y2="160" stroke="#BFDBFE" stroke-width="2" stroke-dasharray="4 3"/>
  <line x1="294" y1="140" x2="372" y2="160" stroke="#BFDBFE" stroke-width="2" stroke-dasharray="4 3"/>
  <line x1="260" y1="156" x2="260" y2="228" stroke="#BFDBFE" stroke-width="2" stroke-dasharray="4 3"/>
  <line x1="236" y1="166" x2="140" y2="228" stroke="#BFDBFE" stroke-width="2" stroke-dasharray="4 3"/>
  <line x1="284" y1="166" x2="380" y2="228" stroke="#BFDBFE" stroke-width="2" stroke-dasharray="4 3"/>
  <!-- Employee 1 - Engineering -->
  <circle cx="130" cy="172" r="26" fill="#7C3AED"/>
  <text x="121" y="178" font-family="Arial" font-size="11" font-weight="700" fill="white">PS</text>
  <rect x="106" y="202" width="48" height="20" rx="6" fill="#F3E8FF"/>
  <text x="109" y="216" font-family="Arial" font-size="8" fill="#7C3AED" font-weight="700">Engineering</text>
  <!-- Employee 2 - Sales -->
  <circle cx="390" cy="172" r="26" fill="#059669"/>
  <text x="381" y="178" font-family="Arial" font-size="11" font-weight="700" fill="white">RM</text>
  <rect x="368" y="202" width="44" height="20" rx="6" fill="#ECFDF5"/>
  <text x="374" y="216" font-family="Arial" font-size="8" fill="#059669" font-weight="700">Sales</text>
  <!-- Employee 3 - Marketing -->
  <circle cx="260" cy="248" r="26" fill="#F97316"/>
  <text x="251" y="254" font-family="Arial" font-size="11" font-weight="700" fill="white">SP</text>
  <rect x="234" y="278" width="52" height="20" rx="6" fill="#FFF7ED"/>
  <text x="238" y="292" font-family="Arial" font-size="8" fill="#F97316" font-weight="700">Marketing</text>
  <!-- Employee 4 - Finance -->
  <circle cx="116" cy="250" r="22" fill="#DC2626"/>
  <text x="109" y="255" font-family="Arial" font-size="10" font-weight="700" fill="white">AD</text>
  <rect x="95" y="276" width="42" height="18" rx="5" fill="#FEF2F2"/>
  <text x="102" y="289" font-family="Arial" font-size="7" fill="#DC2626" font-weight="700">Finance</text>
  <!-- Employee 5 - Operations -->
  <circle cx="404" cy="250" r="22" fill="#0891B2"/>
  <text x="396" y="255" font-family="Arial" font-size="10" font-weight="700" fill="white">KR</text>
  <rect x="383" y="276" width="42" height="18" rx="5" fill="#ECFEFF"/>
  <text x="386" y="289" font-family="Arial" font-size="7" fill="#0891B2" font-weight="700">DevOps</text>
  <!-- Status badges floating -->
  <rect x="36" y="100" width="72" height="32" rx="10" fill="white" stroke="#E2E8F0" stroke-width="1.5"/>
  <circle cx="52" cy="116" r="5" fill="#10B981"/>
  <text x="62" y="113" font-family="Arial" font-size="8" fill="#1E293B" font-weight="700">Present</text>
  <text x="62" y="124" font-family="Arial" font-size="7" fill="#94A3B8">09:02 AM</text>
  <rect x="412" y="100" width="72" height="32" rx="10" fill="white" stroke="#E2E8F0" stroke-width="1.5"/>
  <circle cx="428" cy="116" r="5" fill="#10B981"/>
  <text x="438" y="113" font-family="Arial" font-size="8" fill="#1E293B" font-weight="700">Present</text>
  <text x="438" y="124" font-family="Arial" font-size="7" fill="#94A3B8">09:10 AM</text>
  <!-- WorkPilot badge center top -->
  <rect x="208" y="36" width="104" height="32" rx="10" fill="#0F172A"/>
  <svg x="218" y="44" width="16" height="16" viewBox="0 0 40 40">
    <rect width="40" height="40" rx="8" fill="#2563EB"/>
    <circle cx="20" cy="22" r="6" fill="#F97316"/>
  </svg>
  <text x="240" y="52" font-family="Arial" font-size="9" fill="white" font-weight="700">WorkPilot HR</text>
  <text x="240" y="63" font-family="Arial" font-size="7" fill="#64748B">248 employees managed</text>
  <!-- Payroll chip -->
  <rect x="180" y="298" width="160" height="18" rx="9" fill="#EFF6FF" stroke="#BFDBFE" stroke-width="1"/>
  <text x="240" y="311" font-family="Arial" font-size="8" fill="#2563EB" font-weight="700" text-anchor="middle">💰 June Payroll: ₹28.4L processed</text>
</svg>
