<svg xmlns="http://www.w3.org/2000/svg" viewBox="0 0 280 80" fill="none">
  <!-- W letter -->
  <path d="M8 18L16 52L24 30L32 52L40 18" stroke="white" stroke-width="7" stroke-linecap="round" stroke-linejoin="round" fill="none"/>
  <!-- P letter -->
  <path d="M46 18V52" stroke="white" stroke-width="7" stroke-linecap="round"/>
  <path d="M46 18 Q66 18 66 30 Q66 42 46 42" stroke="white" stroke-width="7" stroke-linecap="round" fill="none"/>
  <!-- Blue swoosh -->
  <path d="M10 56 Q35 48 55 38 Q68 32 74 24" stroke="#60A5FA" stroke-width="3.5" stroke-linecap="round" fill="none"/>
  <!-- People -->
  <circle cx="56" cy="25" r="3" fill="#60A5FA"/>
  <path d="M51 35 Q51 29 56 29 Q61 29 61 35" stroke="#60A5FA" stroke-width="2" fill="none" stroke-linecap="round"/>
  <circle cx="63" cy="24" r="2.5" fill="#60A5FA" opacity="0.8"/>
  <path d="M59 34 Q59 28.5 63 28.5 Q67 28.5 67 34" stroke="#60A5FA" stroke-width="1.8" fill="none" stroke-linecap="round" opacity="0.8"/>
  <!-- Bar chart -->
  <rect x="49" y="40" width="4" height="10" rx="1" fill="#F97316"/>
  <rect x="55" y="36" width="4" height="14" rx="1" fill="#F97316"/>
  <rect x="61" y="32" width="4" height="18" rx="1" fill="#F97316"/>
  <!-- Text: WorkPilot white -->
  <text x="84" y="40" font-family="Arial,sans-serif" font-size="22" font-weight="900" fill="white" letter-spacing="-0.5">WorkPilot</text>
  <!-- HR orange -->
  <text x="214" y="40" font-family="Arial,sans-serif" font-size="22" font-weight="900" fill="#F97316" letter-spacing="-0.5">HR</text>
  <!-- Tagline -->
  <line x1="84" y1="48" x2="92" y2="48" stroke="rgba(255,255,255,0.3)" stroke-width="1"/>
  <text x="96" y="52" font-family="Arial,sans-serif" font-size="7.5" fill="rgba(255,255,255,0.5)" letter-spacing="1.2" font-weight="600">SMART HR. SIMPLIFIED WORKFORCE MANAGEMENT.</text>
  <line x1="236" y1="48" x2="244" y2="48" stroke="rgba(255,255,255,0.3)" stroke-width="1"/>
</svg>
